<mxfile host="Electron" agent="Mozilla/5.0 (Windows NT 10.0; Win64; x64) AppleWebKit/537.36 (KHTML, like Gecko) draw.io/26.0.16 Chrome/132.0.6834.196 Electron/34.2.0 Safari/537.36" version="26.0.16">
  <diagram name="Page-1" id="Kv_S2DqpdOv5cIkbxRM2">
    <mxGraphModel dx="1050" dy="621" grid="0" gridSize="10" guides="1" tooltips="1" connect="1" arrows="1" fold="1" page="1" pageScale="1" pageWidth="1100" pageHeight="850" math="0" shadow="0">
      <root>
        <mxCell id="0" />
        <mxCell id="1" parent="0" />
        <mxCell id="ABzgtv0vVJBKbBT8HKUv-1" value="Quản lý nhân viên" style="shape=umlFrame;whiteSpace=wrap;html=1;pointerEvents=0;recursiveResize=0;container=1;collapsible=0;width=110;height=40;" parent="1" vertex="1">
          <mxGeometry x="299" y="116" width="270" height="309" as="geometry" />
        </mxCell>
        <mxCell id="ABzgtv0vVJBKbBT8HKUv-8" value="Thêm&amp;nbsp;&lt;span style=&quot;background-color: transparent; color: light-dark(rgb(0, 0, 0), rgb(255, 255, 255));&quot;&gt;nhân viên&lt;/span&gt;" style="ellipse;whiteSpace=wrap;html=1;" parent="ABzgtv0vVJBKbBT8HKUv-1" vertex="1">
          <mxGeometry x="118" y="43" width="110" height="40" as="geometry" />
        </mxCell>
        <mxCell id="ABzgtv0vVJBKbBT8HKUv-7" value="Xóa nhân viên" style="ellipse;whiteSpace=wrap;html=1;" parent="ABzgtv0vVJBKbBT8HKUv-1" vertex="1">
          <mxGeometry x="105" y="104" width="90" height="40" as="geometry" />
        </mxCell>
        <mxCell id="ABzgtv0vVJBKbBT8HKUv-6" value="Chỉnh sửa&amp;nbsp;&lt;div&gt;quyền truy cập&lt;/div&gt;" style="ellipse;whiteSpace=wrap;html=1;" parent="ABzgtv0vVJBKbBT8HKUv-1" vertex="1">
          <mxGeometry x="105" y="160" width="110" height="50" as="geometry" />
        </mxCell>
        <mxCell id="ABzgtv0vVJBKbBT8HKUv-14" value="Xin nghỉ phép" style="ellipse;whiteSpace=wrap;html=1;" parent="ABzgtv0vVJBKbBT8HKUv-1" vertex="1">
          <mxGeometry x="95" y="243" width="120" height="40" as="geometry" />
        </mxCell>
        <mxCell id="ABzgtv0vVJBKbBT8HKUv-2" value="Quản trị viên" style="shape=umlActor;verticalLabelPosition=bottom;verticalAlign=top;html=1;" parent="1" vertex="1">
          <mxGeometry x="200" y="220" width="30" height="60" as="geometry" />
        </mxCell>
        <mxCell id="ABzgtv0vVJBKbBT8HKUv-3" value="Nhân viên" style="shape=umlActor;verticalLabelPosition=bottom;verticalAlign=top;html=1;" parent="1" vertex="1">
          <mxGeometry x="617" y="200" width="30" height="60" as="geometry" />
        </mxCell>
        <mxCell id="ABzgtv0vVJBKbBT8HKUv-15" value="" style="endArrow=none;html=1;rounded=0;entryX=1;entryY=0.5;entryDx=0;entryDy=0;" parent="1" source="ABzgtv0vVJBKbBT8HKUv-3" target="ABzgtv0vVJBKbBT8HKUv-14" edge="1">
          <mxGeometry width="50" height="50" relative="1" as="geometry">
            <mxPoint x="500" y="350" as="sourcePoint" />
            <mxPoint x="550" y="300" as="targetPoint" />
          </mxGeometry>
        </mxCell>
        <mxCell id="ABzgtv0vVJBKbBT8HKUv-16" value="" style="endArrow=none;html=1;rounded=0;exitX=0;exitY=0.5;exitDx=0;exitDy=0;" parent="1" source="ABzgtv0vVJBKbBT8HKUv-14" target="ABzgtv0vVJBKbBT8HKUv-2" edge="1">
          <mxGeometry width="50" height="50" relative="1" as="geometry">
            <mxPoint x="890" y="258" as="sourcePoint" />
            <mxPoint x="605" y="415" as="targetPoint" />
          </mxGeometry>
        </mxCell>
        <mxCell id="ABzgtv0vVJBKbBT8HKUv-23" value="" style="endArrow=none;html=1;rounded=0;exitX=0;exitY=0.5;exitDx=0;exitDy=0;" parent="1" source="ABzgtv0vVJBKbBT8HKUv-8" target="ABzgtv0vVJBKbBT8HKUv-2" edge="1">
          <mxGeometry width="50" height="50" relative="1" as="geometry">
            <mxPoint x="329" y="274" as="sourcePoint" />
            <mxPoint x="220" y="254" as="targetPoint" />
          </mxGeometry>
        </mxCell>
        <mxCell id="QwiVzdvGL5qb7WRajahr-1" value="" style="endArrow=none;html=1;rounded=0;exitX=0;exitY=0.5;exitDx=0;exitDy=0;" edge="1" parent="1" source="ABzgtv0vVJBKbBT8HKUv-7" target="ABzgtv0vVJBKbBT8HKUv-2">
          <mxGeometry width="50" height="50" relative="1" as="geometry">
            <mxPoint x="491" y="185" as="sourcePoint" />
            <mxPoint x="240" y="256" as="targetPoint" />
          </mxGeometry>
        </mxCell>
        <mxCell id="QwiVzdvGL5qb7WRajahr-2" value="" style="endArrow=none;html=1;rounded=0;exitX=0;exitY=0.5;exitDx=0;exitDy=0;" edge="1" parent="1" source="ABzgtv0vVJBKbBT8HKUv-6" target="ABzgtv0vVJBKbBT8HKUv-2">
          <mxGeometry width="50" height="50" relative="1" as="geometry">
            <mxPoint x="499" y="244" as="sourcePoint" />
            <mxPoint x="240" y="259" as="targetPoint" />
          </mxGeometry>
        </mxCell>
      </root>
    </mxGraphModel>
  </diagram>
</mxfile>
